<?xml version="1.0"?>
<svg xmlns="http://www.w3.org/2000/svg" viewBox="0 0 16 16">
    <path style="line-height:normal;text-indent:0;text-align:start;text-decoration-line:none;text-decoration-style:solid;text-decoration-color:#000;text-transform:none;block-progression:tb;isolation:auto;mix-blend-mode:normal" d="M 8 1 C 6.9013528 1 6 1.9013528 6 3 C 6 3.5483414 6.2244074 4.0476457 6.5859375 4.4101562 C 6.5859375 4.4101562 6.5839844 4.4121094 6.5839844 4.4121094 C 6.3626547 4.5542349 6.1691939 4.7359334 5.9941406 4.9355469 C 5.9590802 3.8668855 5.0766721 3 4 3 C 2.9013528 3 2 3.9013528 2 5 C 2 5.5359199 2.2172227 6.0225055 2.5644531 6.3828125 C 1.6378325 6.8946108 1 7.8710999 1 9 L 2 9 C 2 7.8890941 2.8890941 7 4 7 C 4.4528757 7 4.8643145 7.1488119 5.1992188 7.4003906 L 6 8 L 6 7 C 6 5.8890941 6.8890941 5 8 5 C 9.1109059 5 10 5.8890941 10 7 L 10 8 L 10.800781 7.4003906 C 11.135685 7.1488119 11.547124 7 12 7 C 13.110906 7 14 7.8890941 14 9 L 15 9 C 15 7.8710999 14.362167 6.8946108 13.435547 6.3828125 C 13.782777 6.0225055 14 5.5359199 14 5 C 14 3.9013528 13.098647 3 12 3 C 10.923328 3 10.04092 3.8668855 10.005859 4.9355469 C 9.8308061 4.7359334 9.6353921 4.5522818 9.4140625 4.4101562 C 9.7755926 4.0476457 10 3.5483414 10 3 C 10 1.9013528 9.0986472 1 8 1 z M 8 2 C 8.5582071 2 9 2.4417929 9 3 C 9 3.5582071 8.5582071 4 8 4 C 7.4417929 4 7 3.5582071 7 3 C 7 2.4417929 7.4417929 2 8 2 z M 4 4 C 4.5582071 4 5 4.4417929 5 5 C 5 5.5582071 4.5582071 6 4 6 C 3.4417929 6 3 5.5582071 3 5 C 3 4.4417929 3.4417929 4 4 4 z M 12 4 C 12.558207 4 13 4.4417929 13 5 C 13 5.5582071 12.558207 6 12 6 C 11.441793 6 11 5.5582071 11 5 C 11 4.4417929 11.441793 4 12 4 z M 5 8 C 3.9013528 8 3 8.9013528 3 10 C 3 10.53592 3.2172227 11.022506 3.5644531 11.382812 C 2.6378325 11.894611 2 12.8711 2 14 L 3 14 C 3 12.889094 3.8890941 12 5 12 C 6.1109059 12 7 12.889094 7 14 L 8 14 C 8 12.8711 7.3621675 11.894612 6.4355469 11.382812 C 6.7827773 11.022506 7 10.53592 7 10 C 7 8.9013528 6.0986472 8 5 8 z M 8 14 L 9 14 C 9 12.889094 9.8890941 12 11 12 C 12.110906 12 13 12.889094 13 14 L 14 14 C 14 12.8711 13.362167 11.894612 12.435547 11.382812 C 12.782777 11.022506 13 10.53592 13 10 C 13 8.9013528 12.098647 8 11 8 C 9.9013528 8 9 8.9013528 9 10 C 9 10.53592 9.2172227 11.022506 9.5644531 11.382812 C 8.6378325 11.894611 8 12.8711 8 14 z M 5 9 C 5.5582071 9 6 9.4417929 6 10 C 6 10.558207 5.5582071 11 5 11 C 4.4417929 11 4 10.558207 4 10 C 4 9.4417929 4.4417929 9 5 9 z M 11 9 C 11.558207 9 12 9.4417929 12 10 C 12 10.558207 11.558207 11 11 11 C 10.441793 11 10 10.558207 10 10 C 10 9.4417929 10.441793 9 11 9 z"/>
</svg>
